# xmcd
#
# Track frame offsets:
#	187
#	11137
#	23437
#	34687
#	48187
#	59512
#	71062
#	83137
#	94687
#	105562
#	118012
#	128212
#	140662
#	150862
#	163912
#	175762
#	187087
#	197362
#	209287
#	220912
#	231487
#
# Disc length: 3190 seconds
# Revision: 1
# Processed by: cddbd v1.5.2PL0 Copyright (c) Steve Scherf et al.
# Submitted via: dBpowerAMP V12.0
#
DISCID=220c7415
DTITLE=Various Artist - 21 Country, Rock and Love Songs of the 50's and 60's, Vol. 1
DYEAR=1989
DGENRE=Rock/Pop
TTITLE0=Hank Locklin - Please Help Me, I'm Falling
TTITLE1=Hank Williams - Your Cheatin' Heart
TTITLE2=Roger Miller - King of the Road
TTITLE3=Gale Garnett - We'll Sing In the Sunshine
TTITLE4=Dinah Washington - What A Difference A Day Makes
TTITLE5=Chuck Berry - Rock and Roll Music
TTITLE6=Brenda Lee - I'm Sorry
TTITLE7=Ruby and the Romantics - Our Day Will Come
TTITLE8=Jim Reeves - He'll Have To Go
TTITLE9=Dion - Runaround Sue
TTITLE10=Ernie Maresca - Shout! Shout! (Knock Yourself Out)
TTITLE11=Dion - The Wanderer
TTITLE12=Dion - A Funny Feeling
TTITLE13=Ernie Maresca - Please Don't Play A7
TTITLE14=Dion and the Belmonts - No One Knows
TTITLE15=Ernie Maresca - What Is A Marine?
TTITLE16=The Chiffons - Open Your Eyes (I Will Be There)
TTITLE17=Dean and Jean - Hey Dean, Hey Jean
TTITLE18=The Jeans - Whenever A Teenager Cries
TTITLE19=Dion and the Belmonts - A Lover's Prayer
TTITLE20=Ernie Maresca - What the Heck Is Happening To Me
EXTD=
EXTT0=
EXTT1=
EXTT2=
EXTT3=
EXTT4=
EXTT5=
EXTT6=
EXTT7=
EXTT8=
EXTT9=
EXTT10=
EXTT11=
EXTT12=
EXTT13=
EXTT14=
EXTT15=
EXTT16=
EXTT17=
EXTT18=
EXTT19=
EXTT20=
PLAYORDER=
